<mxfile host="app.diagrams.net" modified="2024-07-22T11:35:57.853Z" agent="Mozilla/5.0 (Macintosh; Intel Mac OS X 10_15_7) AppleWebKit/537.36 (KHTML, like Gecko) Chrome/126.0.0.0 Safari/537.36" etag="EQ3UqNwsjxhbGvhwTjzg" version="24.7.2" type="github">
  <diagram name="Página-1" id="-ysZiu4EWwWjdDpdFmY9">
    <mxGraphModel dx="1445" dy="907" grid="1" gridSize="10" guides="1" tooltips="1" connect="1" arrows="1" fold="1" page="1" pageScale="1" pageWidth="1169" pageHeight="827" math="0" shadow="0">
      <root>
        <mxCell id="0" />
        <mxCell id="1" parent="0" />
        <mxCell id="SHZ-bhEQL5eEIDplbyfm-1" value="" style="shape=image;verticalLabelPosition=bottom;labelBackgroundColor=default;verticalAlign=top;aspect=fixed;imageAspect=0;image=https://www.nodejsera.com/library/assets/img/ga.png;" parent="1" vertex="1">
          <mxGeometry x="10" y="160" width="362" height="120" as="geometry" />
        </mxCell>
        <mxCell id="2AuBlaV2GxarsQ9qmqeH-18" style="edgeStyle=orthogonalEdgeStyle;curved=1;rounded=0;orthogonalLoop=1;jettySize=auto;html=1;entryX=0.5;entryY=0;entryDx=0;entryDy=0;" edge="1" parent="1" source="SHZ-bhEQL5eEIDplbyfm-23" target="SHZ-bhEQL5eEIDplbyfm-24">
          <mxGeometry relative="1" as="geometry" />
        </mxCell>
        <mxCell id="SHZ-bhEQL5eEIDplbyfm-23" value="Reports" style="sketch=0;outlineConnect=0;fontColor=#232F3E;gradientColor=none;fillColor=#8C4FFF;strokeColor=none;dashed=0;verticalLabelPosition=bottom;verticalAlign=top;align=center;html=1;fontSize=12;fontStyle=0;aspect=fixed;pointerEvents=1;shape=mxgraph.aws4.quicksight_paginated_reports;" parent="1" vertex="1">
          <mxGeometry x="77.20000000000005" y="414" width="39.74" height="50" as="geometry" />
        </mxCell>
        <mxCell id="SHZ-bhEQL5eEIDplbyfm-56" style="edgeStyle=orthogonalEdgeStyle;curved=1;rounded=0;orthogonalLoop=1;jettySize=auto;html=1;" parent="1" source="SHZ-bhEQL5eEIDplbyfm-24" target="SHZ-bhEQL5eEIDplbyfm-25" edge="1">
          <mxGeometry relative="1" as="geometry" />
        </mxCell>
        <mxCell id="SHZ-bhEQL5eEIDplbyfm-24" value="Collector" style="shape=image;verticalLabelPosition=bottom;labelBackgroundColor=default;verticalAlign=top;aspect=fixed;imageAspect=0;image=https://cdn.prod.website-files.com/6203daf47137054c031fa0e6/63306942721a28becf0ded7a_github-actions.svg;" parent="1" vertex="1">
          <mxGeometry x="100" y="535.5" width="76" height="76" as="geometry" />
        </mxCell>
        <mxCell id="SHZ-bhEQL5eEIDplbyfm-57" style="edgeStyle=orthogonalEdgeStyle;curved=1;rounded=0;orthogonalLoop=1;jettySize=auto;html=1;" parent="1" source="SHZ-bhEQL5eEIDplbyfm-25" target="SHZ-bhEQL5eEIDplbyfm-26" edge="1">
          <mxGeometry relative="1" as="geometry" />
        </mxCell>
        <mxCell id="SHZ-bhEQL5eEIDplbyfm-25" value="Preparation" style="shape=image;verticalLabelPosition=bottom;labelBackgroundColor=default;verticalAlign=top;aspect=fixed;imageAspect=0;image=https://cdn.prod.website-files.com/6203daf47137054c031fa0e6/63306942721a28becf0ded7a_github-actions.svg;" parent="1" vertex="1">
          <mxGeometry x="320" y="535.5" width="76" height="76" as="geometry" />
        </mxCell>
        <mxCell id="SHZ-bhEQL5eEIDplbyfm-58" style="edgeStyle=orthogonalEdgeStyle;curved=1;rounded=0;orthogonalLoop=1;jettySize=auto;html=1;" parent="1" source="SHZ-bhEQL5eEIDplbyfm-26" target="SHZ-bhEQL5eEIDplbyfm-27" edge="1">
          <mxGeometry relative="1" as="geometry" />
        </mxCell>
        <mxCell id="SHZ-bhEQL5eEIDplbyfm-26" value="Processing&#xa;GEN" style="shape=image;verticalLabelPosition=bottom;labelBackgroundColor=default;verticalAlign=top;aspect=fixed;imageAspect=0;image=https://seeklogo.com/images/I/ibm-watson-logo-2FE8F505F0-seeklogo.com.png;" parent="1" vertex="1">
          <mxGeometry x="520" y="533.5" width="79.74" height="80" as="geometry" />
        </mxCell>
        <mxCell id="2AuBlaV2GxarsQ9qmqeH-14" style="edgeStyle=orthogonalEdgeStyle;curved=1;rounded=0;orthogonalLoop=1;jettySize=auto;html=1;" edge="1" parent="1" source="SHZ-bhEQL5eEIDplbyfm-27" target="2AuBlaV2GxarsQ9qmqeH-13">
          <mxGeometry relative="1" as="geometry" />
        </mxCell>
        <mxCell id="2AuBlaV2GxarsQ9qmqeH-15" style="edgeStyle=orthogonalEdgeStyle;curved=1;rounded=0;orthogonalLoop=1;jettySize=auto;html=1;entryX=0;entryY=0.5;entryDx=0;entryDy=0;" edge="1" parent="1" source="SHZ-bhEQL5eEIDplbyfm-27" target="2AuBlaV2GxarsQ9qmqeH-5">
          <mxGeometry relative="1" as="geometry" />
        </mxCell>
        <mxCell id="SHZ-bhEQL5eEIDplbyfm-27" value="Aggregation" style="shape=image;verticalLabelPosition=bottom;labelBackgroundColor=default;verticalAlign=top;aspect=fixed;imageAspect=0;image=https://cdn.prod.website-files.com/6203daf47137054c031fa0e6/63306942721a28becf0ded7a_github-actions.svg;" parent="1" vertex="1">
          <mxGeometry x="720" y="535.5" width="76" height="76" as="geometry" />
        </mxCell>
        <mxCell id="SHZ-bhEQL5eEIDplbyfm-40" style="edgeStyle=orthogonalEdgeStyle;curved=1;rounded=0;orthogonalLoop=1;jettySize=auto;html=1;entryX=0;entryY=0.5;entryDx=0;entryDy=0;" parent="1" source="SHZ-bhEQL5eEIDplbyfm-30" target="SHZ-bhEQL5eEIDplbyfm-31" edge="1">
          <mxGeometry relative="1" as="geometry" />
        </mxCell>
        <mxCell id="SHZ-bhEQL5eEIDplbyfm-41" style="edgeStyle=orthogonalEdgeStyle;curved=1;rounded=0;orthogonalLoop=1;jettySize=auto;html=1;" parent="1" source="SHZ-bhEQL5eEIDplbyfm-30" target="SHZ-bhEQL5eEIDplbyfm-35" edge="1">
          <mxGeometry relative="1" as="geometry" />
        </mxCell>
        <mxCell id="SHZ-bhEQL5eEIDplbyfm-30" value="Relatorios" style="sketch=0;outlineConnect=0;fontColor=#232F3E;gradientColor=none;fillColor=#8C4FFF;strokeColor=none;dashed=0;verticalLabelPosition=bottom;verticalAlign=top;align=center;html=1;fontSize=12;fontStyle=0;aspect=fixed;pointerEvents=1;shape=mxgraph.aws4.quicksight_paginated_reports;" parent="1" vertex="1">
          <mxGeometry x="117.33000000000001" y="938" width="62" height="78" as="geometry" />
        </mxCell>
        <mxCell id="SHZ-bhEQL5eEIDplbyfm-42" style="edgeStyle=orthogonalEdgeStyle;curved=1;rounded=0;orthogonalLoop=1;jettySize=auto;html=1;entryX=0;entryY=0.5;entryDx=0;entryDy=0;" parent="1" source="SHZ-bhEQL5eEIDplbyfm-31" target="SHZ-bhEQL5eEIDplbyfm-32" edge="1">
          <mxGeometry relative="1" as="geometry" />
        </mxCell>
        <mxCell id="SHZ-bhEQL5eEIDplbyfm-31" value="Ingestão&#xa;Coleta" style="shape=image;verticalLabelPosition=bottom;labelBackgroundColor=default;verticalAlign=top;aspect=fixed;imageAspect=0;image=https://cdn.prod.website-files.com/6203daf47137054c031fa0e6/63306942721a28becf0ded7a_github-actions.svg;" parent="1" vertex="1">
          <mxGeometry x="337.33000000000004" y="859" width="76" height="76" as="geometry" />
        </mxCell>
        <mxCell id="SHZ-bhEQL5eEIDplbyfm-44" style="edgeStyle=orthogonalEdgeStyle;curved=1;rounded=0;orthogonalLoop=1;jettySize=auto;html=1;entryX=0;entryY=0.5;entryDx=0;entryDy=0;" parent="1" source="SHZ-bhEQL5eEIDplbyfm-32" target="SHZ-bhEQL5eEIDplbyfm-33" edge="1">
          <mxGeometry relative="1" as="geometry" />
        </mxCell>
        <mxCell id="SHZ-bhEQL5eEIDplbyfm-32" value="Preparação" style="shape=image;verticalLabelPosition=bottom;labelBackgroundColor=default;verticalAlign=top;aspect=fixed;imageAspect=0;image=https://cdn.prod.website-files.com/6203daf47137054c031fa0e6/63306942721a28becf0ded7a_github-actions.svg;" parent="1" vertex="1">
          <mxGeometry x="557.33" y="859" width="76" height="76" as="geometry" />
        </mxCell>
        <mxCell id="SHZ-bhEQL5eEIDplbyfm-46" style="edgeStyle=orthogonalEdgeStyle;curved=1;rounded=0;orthogonalLoop=1;jettySize=auto;html=1;entryX=0;entryY=0.5;entryDx=0;entryDy=0;" parent="1" source="SHZ-bhEQL5eEIDplbyfm-33" target="SHZ-bhEQL5eEIDplbyfm-38" edge="1">
          <mxGeometry relative="1" as="geometry" />
        </mxCell>
        <mxCell id="SHZ-bhEQL5eEIDplbyfm-33" value="Processamento" style="shape=image;verticalLabelPosition=bottom;labelBackgroundColor=default;verticalAlign=top;aspect=fixed;imageAspect=0;image=https://seeklogo.com/images/I/ibm-watson-logo-2FE8F505F0-seeklogo.com.png;" parent="1" vertex="1">
          <mxGeometry x="757.33" y="857" width="79.74" height="80" as="geometry" />
        </mxCell>
        <mxCell id="SHZ-bhEQL5eEIDplbyfm-43" style="edgeStyle=orthogonalEdgeStyle;curved=1;rounded=0;orthogonalLoop=1;jettySize=auto;html=1;entryX=0;entryY=0.5;entryDx=0;entryDy=0;" parent="1" source="SHZ-bhEQL5eEIDplbyfm-35" target="SHZ-bhEQL5eEIDplbyfm-36" edge="1">
          <mxGeometry relative="1" as="geometry" />
        </mxCell>
        <mxCell id="SHZ-bhEQL5eEIDplbyfm-35" value="Ingestão&#xa;Coleta" style="shape=image;verticalLabelPosition=bottom;labelBackgroundColor=default;verticalAlign=top;aspect=fixed;imageAspect=0;image=https://cdn.prod.website-files.com/6203daf47137054c031fa0e6/63306942721a28becf0ded7a_github-actions.svg;" parent="1" vertex="1">
          <mxGeometry x="337.33000000000004" y="1009" width="76" height="76" as="geometry" />
        </mxCell>
        <mxCell id="SHZ-bhEQL5eEIDplbyfm-45" style="edgeStyle=orthogonalEdgeStyle;curved=1;rounded=0;orthogonalLoop=1;jettySize=auto;html=1;" parent="1" source="SHZ-bhEQL5eEIDplbyfm-36" target="SHZ-bhEQL5eEIDplbyfm-37" edge="1">
          <mxGeometry relative="1" as="geometry" />
        </mxCell>
        <mxCell id="SHZ-bhEQL5eEIDplbyfm-36" value="Preparação" style="shape=image;verticalLabelPosition=bottom;labelBackgroundColor=default;verticalAlign=top;aspect=fixed;imageAspect=0;image=https://cdn.prod.website-files.com/6203daf47137054c031fa0e6/63306942721a28becf0ded7a_github-actions.svg;" parent="1" vertex="1">
          <mxGeometry x="557.33" y="1009" width="76" height="76" as="geometry" />
        </mxCell>
        <mxCell id="SHZ-bhEQL5eEIDplbyfm-47" style="edgeStyle=orthogonalEdgeStyle;curved=1;rounded=0;orthogonalLoop=1;jettySize=auto;html=1;entryX=0;entryY=0.5;entryDx=0;entryDy=0;" parent="1" source="SHZ-bhEQL5eEIDplbyfm-37" target="SHZ-bhEQL5eEIDplbyfm-38" edge="1">
          <mxGeometry relative="1" as="geometry" />
        </mxCell>
        <mxCell id="SHZ-bhEQL5eEIDplbyfm-37" value="Processamento" style="shape=image;verticalLabelPosition=bottom;labelBackgroundColor=default;verticalAlign=top;aspect=fixed;imageAspect=0;image=https://seeklogo.com/images/I/ibm-watson-logo-2FE8F505F0-seeklogo.com.png;" parent="1" vertex="1">
          <mxGeometry x="757.33" y="1007" width="79.74" height="80" as="geometry" />
        </mxCell>
        <mxCell id="SHZ-bhEQL5eEIDplbyfm-38" value="Finalização&#xa;Distribuição" style="shape=image;verticalLabelPosition=bottom;labelBackgroundColor=default;verticalAlign=top;aspect=fixed;imageAspect=0;image=https://cdn.prod.website-files.com/6203daf47137054c031fa0e6/63306942721a28becf0ded7a_github-actions.svg;" parent="1" vertex="1">
          <mxGeometry x="957.33" y="940" width="76" height="76" as="geometry" />
        </mxCell>
        <mxCell id="2AuBlaV2GxarsQ9qmqeH-12" style="edgeStyle=orthogonalEdgeStyle;curved=1;rounded=0;orthogonalLoop=1;jettySize=auto;html=1;exitX=0.5;exitY=1;exitDx=0;exitDy=0;exitPerimeter=0;" edge="1" parent="1" source="SHZ-bhEQL5eEIDplbyfm-49" target="SHZ-bhEQL5eEIDplbyfm-26">
          <mxGeometry relative="1" as="geometry" />
        </mxCell>
        <mxCell id="SHZ-bhEQL5eEIDplbyfm-49" value="Config" style="verticalLabelPosition=bottom;html=1;verticalAlign=top;align=center;strokeColor=none;fillColor=#00BEF2;shape=mxgraph.azure.rdp_remoting_file;pointerEvents=1;" parent="1" vertex="1">
          <mxGeometry x="626" y="414" width="47.5" height="50" as="geometry" />
        </mxCell>
        <mxCell id="SHZ-bhEQL5eEIDplbyfm-52" value="TRIAGEM SALESFORCE" style="text;html=1;align=center;verticalAlign=middle;resizable=0;points=[];autosize=1;strokeColor=none;fillColor=none;fontSize=32;fontStyle=0" parent="1" vertex="1">
          <mxGeometry x="419.74" y="35" width="390" height="50" as="geometry" />
        </mxCell>
        <mxCell id="SHZ-bhEQL5eEIDplbyfm-54" value="" style="rounded=1;whiteSpace=wrap;html=1;fontColor=default;labelBackgroundColor=default;fillColor=none;dashed=1;dashPattern=12 12;" parent="1" vertex="1">
          <mxGeometry x="69.33000000000001" y="897" width="168" height="180" as="geometry" />
        </mxCell>
        <mxCell id="SHZ-bhEQL5eEIDplbyfm-53" value="" style="shape=image;verticalLabelPosition=bottom;labelBackgroundColor=default;verticalAlign=top;aspect=fixed;imageAspect=0;image=https://mlohrktvfr9b.i.optimole.com/cb:fnc3.16591/w:auto/h:auto/q:90/f:best/https://www.nerdstickers.com.br/wp-content/uploads/2022/10/products-1359-Salesforce-01.png;" parent="1" vertex="1">
          <mxGeometry x="103.33000000000001" y="840" width="100" height="100" as="geometry" />
        </mxCell>
        <mxCell id="2AuBlaV2GxarsQ9qmqeH-19" style="edgeStyle=orthogonalEdgeStyle;curved=1;rounded=0;orthogonalLoop=1;jettySize=auto;html=1;" edge="1" parent="1" source="SHZ-bhEQL5eEIDplbyfm-59" target="SHZ-bhEQL5eEIDplbyfm-24">
          <mxGeometry relative="1" as="geometry" />
        </mxCell>
        <mxCell id="SHZ-bhEQL5eEIDplbyfm-59" value="Trigger" style="sketch=0;aspect=fixed;pointerEvents=1;shadow=0;dashed=0;html=1;strokeColor=none;labelPosition=center;verticalLabelPosition=bottom;verticalAlign=top;align=center;shape=mxgraph.mscae.enterprise.triggers;fillColor=#0078D7;" parent="1" vertex="1">
          <mxGeometry x="161.20000000000005" y="419" width="37.6" height="40" as="geometry" />
        </mxCell>
        <mxCell id="2AuBlaV2GxarsQ9qmqeH-10" style="edgeStyle=orthogonalEdgeStyle;curved=1;rounded=0;orthogonalLoop=1;jettySize=auto;html=1;exitX=0.5;exitY=1;exitDx=0;exitDy=0;exitPerimeter=0;" edge="1" parent="1" source="SHZ-bhEQL5eEIDplbyfm-61" target="SHZ-bhEQL5eEIDplbyfm-26">
          <mxGeometry relative="1" as="geometry" />
        </mxCell>
        <mxCell id="SHZ-bhEQL5eEIDplbyfm-61" value="Infos" style="verticalLabelPosition=bottom;html=1;verticalAlign=top;align=center;strokeColor=none;fillColor=#00BEF2;shape=mxgraph.azure.cloud_services_configuration_file;pointerEvents=1;" parent="1" vertex="1">
          <mxGeometry x="446.0000000000002" y="414" width="47.5" height="50" as="geometry" />
        </mxCell>
        <mxCell id="2AuBlaV2GxarsQ9qmqeH-1" value="" style="shape=image;verticalLabelPosition=bottom;labelBackgroundColor=default;verticalAlign=top;aspect=fixed;imageAspect=0;image=https://seeklogo.com/images/I/ibm-watson-logo-2FE8F505F0-seeklogo.com.png;" vertex="1" parent="1">
          <mxGeometry x="350" y="176" width="79.74" height="80" as="geometry" />
        </mxCell>
        <mxCell id="2AuBlaV2GxarsQ9qmqeH-2" value="" style="shape=image;verticalLabelPosition=bottom;labelBackgroundColor=default;verticalAlign=top;aspect=fixed;imageAspect=0;image=https://dbmstools.com/images/dbms/apache-parquet.png;" vertex="1" parent="1">
          <mxGeometry x="444.12" y="170" width="300" height="100" as="geometry" />
        </mxCell>
        <mxCell id="2AuBlaV2GxarsQ9qmqeH-4" value="" style="shape=image;verticalLabelPosition=bottom;labelBackgroundColor=default;verticalAlign=top;aspect=fixed;imageAspect=0;image=https://logos-world.net/wp-content/uploads/2021/10/Python-Logo.png;" vertex="1" parent="1">
          <mxGeometry x="780" y="148.75" width="253.33" height="142.5" as="geometry" />
        </mxCell>
        <mxCell id="2AuBlaV2GxarsQ9qmqeH-5" value="" style="shape=image;verticalLabelPosition=bottom;labelBackgroundColor=default;verticalAlign=top;aspect=fixed;imageAspect=0;image=https://cdn-icons-png.flaticon.com/512/8001/8001997.png;" vertex="1" parent="1">
          <mxGeometry x="888" y="604" width="62" height="62" as="geometry" />
        </mxCell>
        <mxCell id="2AuBlaV2GxarsQ9qmqeH-11" style="edgeStyle=orthogonalEdgeStyle;curved=1;rounded=0;orthogonalLoop=1;jettySize=auto;html=1;" edge="1" parent="1" source="SHZ-bhEQL5eEIDplbyfm-48" target="SHZ-bhEQL5eEIDplbyfm-26">
          <mxGeometry relative="1" as="geometry" />
        </mxCell>
        <mxCell id="SHZ-bhEQL5eEIDplbyfm-48" value="Parans" style="verticalLabelPosition=bottom;html=1;verticalAlign=top;align=center;strokeColor=none;fillColor=#00BEF2;shape=mxgraph.azure.rdp_remoting_file;pointerEvents=1;" parent="1" vertex="1">
          <mxGeometry x="536.1199999999999" y="414" width="47.5" height="50" as="geometry" />
        </mxCell>
        <mxCell id="2AuBlaV2GxarsQ9qmqeH-13" value="Delivery" style="shape=image;verticalLabelPosition=bottom;labelBackgroundColor=default;verticalAlign=top;aspect=fixed;imageAspect=0;image=https://cdn.prod.website-files.com/6203daf47137054c031fa0e6/63306942721a28becf0ded7a_github-actions.svg;" vertex="1" parent="1">
          <mxGeometry x="888" y="484" width="76" height="76" as="geometry" />
        </mxCell>
        <mxCell id="2AuBlaV2GxarsQ9qmqeH-21" value="" style="shape=image;verticalLabelPosition=bottom;labelBackgroundColor=default;verticalAlign=top;aspect=fixed;imageAspect=0;image=https://cdn-icons-png.flaticon.com/512/8001/8001997.png;" vertex="1" parent="1">
          <mxGeometry x="1060" y="168.5" width="95" height="95" as="geometry" />
        </mxCell>
      </root>
    </mxGraphModel>
  </diagram>
</mxfile>
